<?xml version="1.0" standalone="no"?>
<!DOCTYPE svg PUBLIC "-//W3C//DTD SVG 20010904//EN"
 "http://www.w3.org/TR/2001/REC-SVG-20010904/DTD/svg10.dtd">
<svg version="1.0" xmlns="http://www.w3.org/2000/svg"
 width="1024.000000pt" height="1024.000000pt" viewBox="0 0 1024.000000 1024.000000"
 preserveAspectRatio="xMidYMid meet">

<g transform="translate(0.000000,1024.000000) scale(0.100000,-0.100000)"
fill="#000000" stroke="none">
<path d="M4750 9778 c-390 -46 -532 -70 -780 -133 -1653 -416 -2959 -1722
-3375 -3375 -63 -251 -93 -426 -134 -792 -14 -125 -14 -591 0 -716 41 -366 71
-541 134 -792 249 -989 823 -1875 1630 -2514 656 -520 1466 -861 2288 -965
297 -38 349 -41 607 -41 258 0 310 3 607 41 1198 151 2322 792 3069 1750 517
662 850 1456 953 2272 38 297 41 349 41 607 0 258 -3 310 -41 607 -137 1086
-675 2113 -1494 2852 -575 519 -1248 880 -1985 1066 -251 63 -426 93 -792 134
-113 13 -619 12 -728 -1z m695 -338 c1543 -130 2864 -1017 3548 -2385 303
-606 457 -1256 457 -1935 0 -307 -30 -595 -91 -885 -355 -1689 -1665 -2999
-3354 -3354 -290 -61 -578 -91 -885 -91 -1644 0 -3136 923 -3873 2395 -303
606 -457 1256 -457 1935 0 1308 590 2545 1605 3366 675 547 1502 877 2380 953
143 12 529 13 670 1z"/>
<path d="M4835 9104 c-582 -57 -1005 -172 -1470 -399 -134 -66 -403 -219 -429
-245 -7 -7 736 -10 2184 -10 1448 0 2191 3 2184 10 -26 26 -295 179 -429 245
-400 195 -802 316 -1255 376 -120 16 -221 22 -450 24 -162 2 -313 1 -335 -1z"/>
<path d="M7245 8070 l-250 -250 -1885 0 -1885 0 -245 245 c-134 135 -249 245
-255 245 -12 -1 -128 -93 -256 -205 -168 -148 -382 -378 -523 -564 l-49 -63
277 -277 276 -276 0 -1815 0 -1815 -272 -272 -271 -272 43 -58 c127 -169 352
-411 519 -558 122 -107 230 -194 256 -206 17 -8 58 28 317 286 l297 295 1788
0 1788 0 296 -296 297 -297 98 79 c256 206 499 454 688 702 l49 64 -277 271
-277 272 1 1820 0 1820 272 272 271 272 -43 58 c-122 163 -318 375 -486 527
-114 104 -288 246 -301 246 -4 0 -121 -112 -258 -250z m-3744 -587 c165 -164
304 -299 310 -301 5 -2 9 -10 9 -18 0 -11 -63 -14 -387 -16 l-388 -3 -5 -364
-5 -365 -272 268 -273 269 0 407 c0 223 3 410 7 413 3 4 163 7 355 7 l350 0
299 -297z m4237 -113 l2 -406 -260 -259 c-143 -143 -267 -261 -275 -263 -13
-3 -15 43 -15 357 l0 361 -385 0 c-212 0 -385 3 -385 7 0 5 136 144 303 311
l302 302 355 -2 355 -3 3 -405z m-1769 -575 l-315 -315 -537 0 -537 0 -317
315 -318 314 1170 1 1170 0 -316 -315z m-1151 -612 c144 -142 262 -261 262
-265 0 -13 -762 -763 -772 -760 -5 1 -122 114 -259 250 l-249 247 0 386 c0
212 3 389 7 392 3 4 173 7 377 7 l371 0 263 -257z m1620 -133 l2 -385 -252
-252 c-139 -140 -258 -252 -265 -251 -16 4 -763 741 -763 753 0 6 116 126 258
268 l258 257 380 -2 379 -3 3 -385z m722 -924 c0 -646 -4 -1177 -8 -1180 -4
-2 -155 142 -335 322 l-327 326 0 525 -1 525 33 33 c18 18 164 166 323 327
160 161 296 294 303 295 9 1 12 -240 12 -1173z m-3400 -14 l0 -514 -332 -328
-333 -328 -5 1167 c-3 641 -3 1170 -1 1175 2 4 154 -142 337 -325 l334 -334 0
-513z m2424 -286 l256 -249 0 -378 0 -379 -392 0 -393 0 -243 243 c-133 133
-245 246 -250 250 -7 9 747 767 759 764 4 -1 122 -114 263 -251z m-1479 -131
l380 -374 -250 -251 -250 -250 -388 2 -388 3 0 380 0 380 248 242 c136 133
253 242 258 242 6 0 181 -168 390 -374z m-1655 -1281 l0 -384 365 0 c201 0
365 -3 365 -7 0 -4 -102 -110 -227 -235 l-227 -228 -413 0 -413 0 0 357 0 358
267 267 c147 147 270 265 275 262 4 -3 8 -178 8 -390z m4698 -495 l-3 -354
-410 -3 -410 -2 -235 235 c-129 129 -228 235 -220 235 8 0 175 1 370 3 l355 2
3 375 c1 206 5 382 8 390 3 10 91 -72 275 -256 l269 -270 -2 -355z m-1770 515
c188 -185 342 -340 342 -345 0 -5 -498 -9 -1200 -9 -660 0 -1200 2 -1200 5 0
3 154 158 343 345 l342 339 516 1 516 0 341 -336z"/>
<path d="M1702 7180 c-273 -454 -456 -960 -531 -1475 -33 -223 -36 -275 -36
-585 0 -310 3 -362 36 -585 75 -515 258 -1021 531 -1475 l93 -155 3 1107 c1
610 1 1606 0 2215 l-3 1108 -93 -155z"/>
<path d="M8440 5120 l0 -2215 27 40 c113 166 270 468 361 695 111 277 198 599
241 895 33 223 36 275 36 585 0 310 -3 362 -36 585 -43 296 -130 618 -241 895
-91 227 -248 529 -361 695 l-27 40 0 -2215z"/>
<path d="M2840 1850 c0 -22 321 -216 525 -315 407 -198 821 -321 1290 -382
200 -25 730 -25 930 0 469 61 883 184 1290 382 204 99 525 293 525 315 0 6
-843 10 -2280 10 -1437 0 -2280 -4 -2280 -10z"/>
</g>
</svg>
